# Blender v2.78 (sub 0) OBJ File: 'upgrade_station1.blend'
# www.blender.org
mtllib upgrade_station.mtl
o Cube.001
v -0.450893 0.724159 0.450893
v -0.450893 0.810044 0.450893
v -0.450893 0.724159 -0.450893
v -0.450893 0.810044 -0.450893
v 0.450893 0.724159 0.450893
v 0.450893 0.810044 0.450893
v 0.450893 0.724159 -0.450893
v 0.450893 0.810044 -0.450893
v 0.368912 0.724159 -0.450893
v 0.286932 0.724159 -0.450893
v 0.204951 0.724159 -0.450893
v 0.122971 0.724159 -0.450893
v 0.040990 0.724159 -0.450893
v -0.040990 0.724159 -0.450893
v -0.122971 0.724159 -0.450893
v -0.204951 0.724159 -0.450893
v -0.286932 0.724159 -0.450893
v -0.368912 0.724159 -0.450893
v -0.368912 0.724159 0.450893
v -0.286932 0.724159 0.450893
v -0.204951 0.724159 0.450893
v -0.122971 0.724159 0.450893
v -0.040990 0.724159 0.450893
v 0.204951 0.724159 0.450893
v 0.286932 0.724159 0.450893
v 0.368912 0.724159 0.450893
v -0.450893 0.724159 -0.368912
v -0.450893 0.724159 -0.286932
v -0.450893 0.724159 -0.204951
v -0.450893 0.724159 -0.122971
v -0.450893 0.724159 -0.040990
v -0.450893 0.724159 0.040990
v -0.450893 0.724159 0.122971
v -0.450893 0.724159 0.204951
v -0.450893 0.724159 0.286932
v -0.450893 0.724159 0.368912
v 0.450893 0.724159 0.368912
v 0.450893 0.724159 0.286932
v 0.450893 0.724159 0.204951
v 0.450893 0.724159 0.122971
v 0.450893 0.724159 0.040990
v 0.450893 0.724159 -0.040990
v 0.450893 0.724159 -0.122971
v 0.368912 0.724159 -0.204951
v 0.450893 0.724159 -0.286932
v 0.450893 0.724159 -0.368912
v -0.368912 0.724159 -0.368912
v -0.368912 0.724159 -0.286932
v -0.368912 0.724159 -0.204951
v -0.368912 0.724159 -0.122971
v -0.368912 0.724159 -0.040990
v -0.368912 0.724159 0.040990
v -0.368912 0.724159 0.122971
v -0.368912 0.724159 0.204951
v -0.368912 0.724159 0.286932
v -0.368912 0.724159 0.368912
v -0.286932 0.724159 -0.368912
v 0.286932 0.242681 -0.204951
v -0.286932 0.724159 -0.204951
v -0.286932 0.724159 -0.122971
v -0.286932 0.724159 -0.040990
v -0.286932 0.724159 0.040990
v -0.286932 0.724159 0.122971
v -0.286932 0.724159 0.204951
v 0.286932 0.197153 -0.204951
v -0.286932 0.724159 0.368912
v -0.204951 0.724159 -0.368912
v -0.204951 0.724159 -0.286932
v -0.204951 0.724159 -0.204951
v -0.204951 0.724159 -0.122971
v -0.204951 0.724159 -0.040990
v -0.204951 0.724159 0.040990
v -0.204951 0.724159 0.122971
v -0.204951 0.724159 0.204951
v -0.204951 0.724159 0.286932
v -0.204951 0.724159 0.368912
v -0.122971 0.724159 -0.368912
v -0.122971 0.724159 -0.286932
v -0.122971 0.724159 -0.204951
v -0.122971 0.724159 -0.122971
v -0.122971 0.724159 -0.040990
v -0.122971 0.724159 0.040990
v -0.122971 0.724159 0.122971
v -0.122971 0.724159 0.204951
v -0.122971 0.724159 0.286932
v -0.122971 0.724159 0.368912
v -0.040990 0.724159 -0.368912
v -0.040990 0.724159 -0.286932
v -0.040990 0.724159 -0.204951
v -0.040990 0.724159 -0.122971
v -0.040990 0.724159 -0.040990
v -0.040990 0.724159 0.040990
v -0.040990 0.724159 0.122971
v -0.040990 0.724159 0.204951
v -0.040990 0.724159 0.286932
v -0.040990 0.724159 0.368912
v 0.040990 0.724159 -0.368912
v 0.040990 0.724159 -0.286932
v 0.040990 0.724159 -0.204951
v 0.040990 0.724159 -0.122971
v 0.040990 0.724159 -0.040990
v 0.040990 0.724159 0.040990
v 0.040990 0.724159 0.122971
v 0.040990 0.724159 0.204951
v 0.040990 0.724159 0.286932
v 0.040990 0.724159 0.368912
v 0.122971 0.724159 -0.368912
v 0.122971 0.724159 -0.286932
v 0.122971 0.724159 -0.204951
v 0.122971 0.724159 -0.122971
v 0.122971 0.724159 -0.040990
v 0.122971 0.724159 0.040990
v 0.122971 0.724159 0.122971
v 0.122971 0.724159 0.204951
v 0.122971 0.724159 0.286932
v 0.122971 0.724159 0.368912
v 0.204951 0.724159 -0.368912
v 0.204951 0.724159 -0.286932
v 0.204951 0.724159 -0.204951
v 0.204951 0.724159 -0.122971
v 0.204951 0.724159 -0.040990
v 0.204951 0.724159 0.040990
v 0.204951 0.724159 0.122971
v 0.204951 0.724159 0.204951
v 0.204951 0.724159 0.286932
v 0.204951 0.724159 0.368912
v 0.286932 0.724159 -0.368912
v 0.368912 0.197153 -0.368912
v 0.286932 0.724159 -0.204951
v 0.286932 0.724159 -0.122971
v 0.286932 0.724159 -0.040990
v 0.286932 0.724159 0.040990
v 0.286932 0.724159 0.122971
v 0.286932 0.724159 0.204951
v 0.368912 0.242681 -0.368912
v 0.286932 0.724159 0.368912
v 0.368912 0.724159 -0.368912
v 0.368912 0.724159 -0.286932
v 0.368912 0.724159 -0.204951
v 0.368912 0.724159 -0.122971
v 0.368912 0.724159 -0.040990
v 0.368912 0.724159 0.040990
v 0.368912 0.724159 0.122971
v 0.368912 0.724159 0.204951
v 0.368912 0.724159 0.286932
v 0.368912 0.724159 0.368912
v -0.368912 0.003578 -0.368912
v -0.368912 0.003578 -0.286932
v -0.368912 0.003578 -0.204951
v -0.368912 0.003578 0.204951
v -0.368912 0.003578 0.286932
v -0.368912 0.003578 0.368912
v -0.286932 0.003578 -0.368912
v -0.286932 0.003578 -0.286932
v -0.286932 0.003578 -0.204951
v -0.286932 0.003578 0.204951
v -0.286932 0.003578 0.286932
v -0.286932 0.003578 0.368912
v -0.204951 0.003578 -0.368912
v -0.204951 0.003578 -0.286932
v -0.204951 0.003578 -0.204951
v -0.204951 0.003578 0.204951
v -0.204951 0.003578 0.286932
v -0.204951 0.003578 0.368912
v 0.204951 0.003578 -0.368912
v 0.204951 0.003578 -0.286932
v 0.204951 0.003578 -0.204951
v 0.204951 0.003578 0.204951
v 0.204951 0.003578 0.286932
v 0.204951 0.003578 0.368912
v 0.286932 0.003578 -0.368912
v 0.286932 0.003578 -0.286932
v 0.286932 0.003578 -0.204951
v 0.286932 0.003578 0.204951
v 0.286932 0.003578 0.286932
v 0.286932 0.003578 0.368912
v 0.368912 0.003578 -0.368912
v 0.368912 0.003578 -0.286932
v 0.368912 0.003578 -0.204951
v 0.368912 0.003578 0.204951
v 0.368912 0.003578 0.286932
v 0.368912 0.003578 0.368912
v 0.204951 0.242681 -0.204951
v 0.204951 0.197153 -0.204951
v 0.204951 0.197153 -0.286932
v 0.204951 0.242681 -0.286932
v 0.204951 0.197153 -0.368912
v 0.204951 0.242681 -0.368912
v 0.286932 0.242681 -0.368912
v 0.286932 0.197153 -0.368912
v 0.368912 0.197153 -0.204951
v 0.368912 0.242681 -0.204951
v 0.368912 0.242681 -0.286932
v 0.368912 0.197153 -0.286932
v 0.368912 0.242681 0.368912
v 0.368912 0.197153 0.368912
v 0.368912 0.197153 0.204951
v 0.368912 0.242681 0.204951
v 0.368912 0.242681 0.286932
v 0.368912 0.197153 0.286932
v 0.286932 0.242681 0.204951
v 0.286932 0.197153 0.204951
v 0.204951 0.197153 0.204951
v 0.204951 0.242681 0.204951
v 0.204951 0.197153 0.286932
v 0.204951 0.242681 0.286932
v 0.204951 0.242681 0.368912
v 0.204951 0.197153 0.368912
v 0.286932 0.197153 0.368912
v 0.286932 0.242681 0.368912
v -0.204951 0.197153 0.368912
v -0.204951 0.242681 0.368912
v -0.286932 0.242681 0.368912
v -0.286932 0.197153 0.368912
v -0.286932 0.197153 0.204951
v -0.286932 0.242681 0.204951
v -0.204951 0.242681 0.204951
v -0.204951 0.197153 0.204951
v -0.368912 0.242681 0.204951
v -0.368912 0.197153 0.204951
v -0.368912 0.197153 0.286932
v -0.368912 0.242681 0.286932
v -0.368912 0.197153 0.368912
v -0.368912 0.242681 0.368912
v -0.204951 0.242681 0.286932
v -0.204951 0.197153 0.286932
v -0.204951 0.242681 -0.286932
v -0.204951 0.197153 -0.286932
v -0.368912 0.197153 -0.368912
v -0.368912 0.242681 -0.368912
v -0.286932 0.242681 -0.368912
v -0.286932 0.197153 -0.368912
v -0.204951 0.197153 -0.368912
v -0.204951 0.242681 -0.368912
v -0.368912 0.242681 -0.204951
v -0.368912 0.197153 -0.204951
v -0.286932 0.197153 -0.204951
v -0.286932 0.242681 -0.204951
v -0.204951 0.242681 -0.204951
v -0.204951 0.197153 -0.204951
v -0.368912 0.197153 -0.286932
v -0.368912 0.242681 -0.286932
v 0.543160 0.806340 0.449714
v 0.543160 0.906753 0.449714
v 0.543160 0.806340 0.095101
v 0.543160 0.906753 0.095101
v 0.634978 0.806340 0.449714
v 0.587986 0.906753 0.449714
v 0.634978 0.806340 0.095101
v 0.587986 0.906753 0.095101
v 0.543160 0.729314 0.095101
v 0.543160 0.729314 0.449714
v 0.634978 0.729314 0.095101
v 0.634978 0.729314 0.449714
v 0.458060 0.806340 0.095101
v 0.458060 0.806340 0.449714
v 0.458060 0.729314 0.095101
v 0.458060 0.729314 0.449714
v 0.368515 0.806340 0.095101
v 0.368515 0.806340 0.449714
v 0.368515 0.729314 0.095101
v 0.368515 0.729314 0.449714
v 0.458060 0.909322 0.095101
v 0.458060 0.909322 0.449714
v 0.415506 0.909322 0.095101
v 0.415506 0.909322 0.449714
v 0.368515 0.789148 0.227177
v 0.368515 0.789148 0.317638
v 0.368515 0.746506 0.227177
v 0.368515 0.746506 0.317638
v 0.044700 0.789148 0.227177
v 0.044700 0.789148 0.317638
v 0.044700 0.746506 0.227177
v 0.044700 0.746506 0.317638
v 0.634978 0.797464 0.300677
v 0.634978 0.797464 0.244138
v 0.634978 0.738191 0.300677
v 0.634978 0.738191 0.244138
v 0.687155 0.797464 0.300677
v 0.687155 0.797464 0.244138
v 0.687155 0.738191 0.300677
v 0.687155 0.738191 0.244138
v 0.759339 0.797464 0.300677
v 0.759339 0.797464 0.244138
v 0.759339 0.738191 0.300677
v 0.759339 0.738191 0.244138
v 0.703094 0.797464 0.288193
v 0.703094 0.797464 0.256622
v 0.743401 0.797464 0.288193
v 0.743401 0.797464 0.256622
v 0.703094 0.975160 0.288193
v 0.703094 0.975160 0.256622
v 0.743401 0.975160 0.288193
v 0.743401 0.975160 0.256622
v 0.703094 0.738196 0.288193
v 0.703094 0.738196 0.256622
v 0.743401 0.738196 0.288193
v 0.743401 0.738196 0.256622
v 0.703094 0.561762 0.288193
v 0.703094 0.561762 0.256622
v 0.743401 0.561762 0.288193
v 0.743401 0.561762 0.256622
v 0.458057 0.789148 0.227177
v 0.458057 0.789148 0.317638
v 0.458057 0.746506 0.227177
v 0.458057 0.746506 0.317638
v 0.543168 0.789148 0.227177
v 0.543168 0.789148 0.317638
v 0.543168 0.746506 0.227177
v 0.543168 0.746506 0.317638
v 0.450893 0.724159 -0.204951
v 0.040990 0.724159 0.450893
v 0.122971 0.724159 0.450893
vn 1.0000 0.0000 0.0000
vn 0.0000 -1.0000 0.0000
vn 0.0000 0.0000 -1.0000
vn -1.0000 0.0000 0.0000
vn 0.0000 0.0000 1.0000
vn 0.0000 1.0000 0.0000
vn 0.9057 0.4239 0.0000
vn -0.9098 0.4151 0.0000
vn 0.0003 -1.0000 0.0000
vn 0.0000 -1.0000 -0.0004
vn -0.0003 -1.0000 0.0000
vn 0.0000 -1.0000 0.0004
vn 1.0000 0.0002 0.0000
vn 1.0000 -0.0002 0.0000
vn -1.0000 0.0000 -0.0001
vn -1.0000 0.0005 0.0000
vn -1.0000 0.0000 0.0001
vn -1.0000 -0.0005 0.0000
usemtl None
s off
f 40//1 41//1 6//1
f 37//2 26//2 146//2
f 56//2 1//2 36//2
f 66//2 19//2 56//2
f 76//2 20//2 66//2
f 86//2 21//2 76//2
f 96//2 22//2 86//2
f 313//2 106//2 116//2
f 96//2 312//2 23//2
f 136//2 24//2 126//2
f 146//2 25//2 136//2
f 313//2 126//2 24//2
f 8//3 13//3 4//3
f 9//2 127//2 10//2
f 221//4 152//4 223//4
f 240//1 160//1 228//1
f 139//2 130//2 129//2
f 140//2 131//2 130//2
f 141//2 132//2 131//2
f 142//2 133//2 132//2
f 143//2 134//2 133//2
f 65//5 179//5 191//5
f 220//4 151//4 221//4
f 10//2 117//2 11//2
f 236//5 155//5 237//5
f 228//1 159//1 233//1
f 129//2 120//2 119//2
f 130//2 121//2 120//2
f 131//2 122//2 121//2
f 132//2 123//2 122//2
f 133//2 124//2 123//2
f 128//3 171//3 190//3
f 232//3 147//3 229//3
f 11//2 107//2 12//2
f 117//2 108//2 107//2
f 118//2 109//2 108//2
f 119//2 110//2 109//2
f 120//2 111//2 110//2
f 121//2 112//2 111//2
f 122//2 113//2 112//2
f 123//2 114//2 113//2
f 124//2 115//2 114//2
f 125//2 116//2 115//2
f 12//2 97//2 13//2
f 107//2 98//2 97//2
f 108//2 99//2 98//2
f 109//2 100//2 99//2
f 110//2 101//2 100//2
f 111//2 102//2 101//2
f 112//2 103//2 102//2
f 113//2 104//2 103//2
f 114//2 105//2 104//2
f 115//2 106//2 105//2
f 13//2 87//2 14//2
f 97//2 88//2 87//2
f 98//2 89//2 88//2
f 99//2 90//2 89//2
f 100//2 91//2 90//2
f 101//2 92//2 91//2
f 102//2 93//2 92//2
f 103//2 94//2 93//2
f 104//2 95//2 94//2
f 105//2 96//2 95//2
f 14//2 77//2 15//2
f 87//2 78//2 77//2
f 88//2 79//2 78//2
f 89//2 80//2 79//2
f 90//2 81//2 80//2
f 91//2 82//2 81//2
f 92//2 83//2 82//2
f 93//2 84//2 83//2
f 94//2 85//2 84//2
f 95//2 86//2 85//2
f 15//2 67//2 16//2
f 77//2 68//2 67//2
f 78//2 69//2 68//2
f 79//2 70//2 69//2
f 80//2 71//2 70//2
f 81//2 72//2 71//2
f 82//2 73//2 72//2
f 83//2 74//2 73//2
f 84//2 75//2 74//2
f 85//2 76//2 75//2
f 16//2 57//2 17//2
f 196//1 181//1 200//1
f 185//4 167//4 184//4
f 69//2 60//2 59//2
f 70//2 61//2 60//2
f 71//2 62//2 61//2
f 72//2 63//2 62//2
f 73//2 64//2 63//2
f 184//5 173//5 65//5
f 214//5 164//5 211//5
f 17//2 47//2 18//2
f 200//1 180//1 197//1
f 187//4 166//4 185//4
f 59//2 50//2 49//2
f 60//2 51//2 50//2
f 61//2 52//2 51//2
f 62//2 53//2 52//2
f 63//2 54//2 53//2
f 190//3 165//3 187//3
f 218//3 156//3 215//3
f 18//2 27//2 3//2
f 47//2 28//2 27//2
f 48//2 29//2 28//2
f 49//2 30//2 29//2
f 50//2 31//2 30//2
f 51//2 32//2 31//2
f 52//2 33//2 32//2
f 53//2 34//2 33//2
f 54//2 35//2 34//2
f 55//2 36//2 35//2
f 138//2 311//2 44//2
f 7//2 137//2 9//2
f 137//2 45//2 138//2
f 44//2 43//2 140//2
f 140//2 42//2 141//2
f 141//2 41//2 142//2
f 142//2 40//2 143//2
f 143//2 39//2 144//2
f 144//2 38//2 145//2
f 38//2 146//2 145//2
f 4//4 31//4 2//4
f 177//2 172//2 171//2
f 178//2 173//2 172//2
f 180//2 175//2 174//2
f 181//2 176//2 175//2
f 171//2 166//2 165//2
f 172//2 167//2 166//2
f 174//2 169//2 168//2
f 175//2 170//2 169//2
f 159//2 154//2 153//2
f 160//2 155//2 154//2
f 162//2 157//2 156//2
f 163//2 158//2 157//2
f 153//2 148//2 147//2
f 154//2 149//2 148//2
f 156//2 151//2 150//2
f 157//2 152//2 151//2
f 233//3 153//3 232//3
f 202//3 168//3 203//3
f 194//1 177//1 128//1
f 203//4 169//4 205//4
f 237//5 161//5 240//5
f 191//1 178//1 194//1
f 208//5 176//5 209//5
f 205//4 170//4 208//4
f 215//3 150//3 220//3
f 197//3 174//3 202//3
f 229//4 148//4 241//4
f 226//1 162//1 218//1
f 223//5 158//5 214//5
f 209//5 182//5 196//5
f 241//4 149//4 236//4
f 211//1 163//1 226//1
f 139//1 193//1 138//1
f 192//1 194//1 193//1
f 138//1 135//1 137//1
f 193//1 128//1 135//1
f 127//3 188//3 117//3
f 189//3 187//3 188//3
f 117//4 186//4 118//4
f 188//4 185//4 186//4
f 119//5 58//5 129//5
f 183//5 65//5 58//5
f 118//4 183//4 119//4
f 186//4 184//4 183//4
f 137//3 189//3 127//3
f 135//3 190//3 189//3
f 129//5 192//5 139//5
f 58//5 191//5 192//5
f 136//5 195//5 146//5
f 210//5 196//5 195//5
f 144//3 201//3 134//3
f 198//3 202//3 201//3
f 125//4 207//4 126//4
f 206//4 208//4 207//4
f 126//5 210//5 136//5
f 207//5 209//5 210//5
f 124//4 206//4 125//4
f 204//4 205//4 206//4
f 134//3 204//3 124//3
f 201//3 203//3 204//3
f 145//1 198//1 144//1
f 199//1 197//1 198//1
f 146//1 199//1 145//1
f 195//1 200//1 199//1
f 76//1 225//1 75//1
f 212//1 226//1 225//1
f 56//5 213//5 66//5
f 224//5 214//5 213//5
f 75//1 217//1 74//1
f 225//1 218//1 217//1
f 64//3 219//3 54//3
f 216//3 220//3 219//3
f 74//3 216//3 64//3
f 217//3 215//3 216//3
f 66//5 212//5 76//5
f 213//5 211//5 212//5
f 54//4 222//4 55//4
f 219//4 221//4 222//4
f 55//4 224//4 56//4
f 222//4 223//4 224//4
f 48//4 235//4 49//4
f 242//4 236//4 235//4
f 47//4 242//4 48//4
f 230//4 241//4 242//4
f 59//5 239//5 69//5
f 238//5 240//5 239//5
f 67//3 231//3 57//3
f 234//3 232//3 231//3
f 57//3 230//3 47//3
f 231//3 229//3 230//3
f 68//1 234//1 67//1
f 227//1 233//1 234//1
f 49//5 238//5 59//5
f 235//5 237//5 238//5
f 69//1 227//1 68//1
f 239//1 228//1 227//1
f 218//6 208//6 203//6
f 191//6 203//6 197//6
f 187//2 240//2 233//2
f 240//2 203//2 218//2
f 218//2 236//2 240//2
f 216//2 235//2 238//2
f 206//2 212//2 225//2
f 220//4 235//4 236//4
f 208//5 212//5 211//5
f 58//2 198//2 201//2
f 192//4 197//4 198//4
f 186//2 239//2 227//2
f 234//5 187//5 188//5
f 239//2 204//2 217//2
f 244//4 245//4 243//4
f 245//3 250//3 249//3
f 250//7 247//7 249//7
f 248//5 243//5 247//5
f 246//6 248//6 250//6
f 253//2 252//2 251//2
f 247//1 276//1 249//1
f 243//5 254//5 247//5
f 249//3 251//3 245//3
f 257//3 259//3 255//3
f 260//4 270//4 262//4
f 255//3 265//3 263//3
f 256//5 262//5 258//5
f 258//2 261//2 257//2
f 263//6 266//6 264//6
f 255//1 264//1 256//1
f 256//5 266//5 260//5
f 260//8 265//8 259//8
f 267//6 272//6 268//6
f 261//4 270//4 269//4
f 261//4 267//4 259//4
f 259//4 268//4 260//4
f 271//4 274//4 272//4
f 268//5 274//5 270//5
f 270//2 273//2 269//2
f 269//3 271//3 267//3
f 277//5 279//5 275//5
f 247//1 277//1 275//1
f 253//1 277//1 254//1
f 249//1 278//1 253//1
f 281//5 283//5 279//5
f 275//6 280//6 276//6
f 276//3 282//3 278//3
f 278//2 281//2 277//2
f 283//1 286//1 284//1
f 283//6 287//6 279//6
f 280//3 286//3 282//3
f 290//1 293//1 289//1
f 280//6 287//6 288//6
f 280//6 290//6 284//6
f 284//6 289//6 283//6
f 291//6 294//6 292//6
f 289//5 291//5 287//5
f 287//4 292//4 288//4
f 288//3 294//3 290//3
f 289//1 298//1 290//1
f 287//5 297//5 289//5
f 288//4 295//4 287//4
f 290//3 296//3 288//3
f 296//9 281//9 282//9
f 295//10 285//10 281//10
f 285//11 298//11 286//11
f 286//12 296//12 282//12
f 298//3 300//3 296//3
f 297//1 302//1 298//1
f 295//5 301//5 297//5
f 296//4 299//4 295//4
f 302//2 299//2 300//2
f 269//2 306//2 270//2
f 267//3 305//3 269//3
f 267//2 304//2 268//2
f 270//5 304//5 268//5
f 258//1 304//1 256//1
f 257//13 306//13 258//13
f 255//1 305//1 257//1
f 304//14 255//14 256//14
f 303//3 309//3 305//3
f 304//6 307//6 303//6
f 306//5 308//5 304//5
f 305//2 310//2 306//2
f 308//15 252//15 243//15
f 310//16 251//16 252//16
f 309//17 245//17 251//17
f 245//18 308//18 243//18
f 5//5 2//5 1//5
f 2//6 8//6 4//6
f 8//1 6//1 41//1
f 37//1 38//1 6//1
f 6//1 5//1 37//1
f 46//1 7//1 8//1
f 311//1 45//1 8//1
f 41//1 42//1 8//1
f 45//1 46//1 8//1
f 43//1 311//1 8//1
f 6//1 38//1 39//1
f 39//1 40//1 6//1
f 43//1 8//1 42//1
f 37//2 5//2 26//2
f 56//2 19//2 1//2
f 66//2 20//2 19//2
f 76//2 21//2 20//2
f 86//2 22//2 21//2
f 96//2 23//2 22//2
f 313//2 312//2 106//2
f 96//2 106//2 312//2
f 136//2 25//2 24//2
f 146//2 26//2 25//2
f 313//2 116//2 126//2
f 3//3 4//3 18//3
f 8//3 7//3 9//3
f 10//3 11//3 8//3
f 8//3 9//3 10//3
f 18//3 4//3 17//3
f 15//3 16//3 4//3
f 17//3 4//3 16//3
f 8//3 11//3 12//3
f 13//3 14//3 4//3
f 8//3 12//3 13//3
f 15//3 4//3 14//3
f 9//2 137//2 127//2
f 221//4 151//4 152//4
f 240//1 161//1 160//1
f 139//2 140//2 130//2
f 140//2 141//2 131//2
f 141//2 142//2 132//2
f 142//2 143//2 133//2
f 143//2 144//2 134//2
f 65//5 173//5 179//5
f 220//4 150//4 151//4
f 10//2 127//2 117//2
f 236//5 149//5 155//5
f 228//1 160//1 159//1
f 129//2 130//2 120//2
f 130//2 131//2 121//2
f 131//2 132//2 122//2
f 132//2 133//2 123//2
f 133//2 134//2 124//2
f 128//3 177//3 171//3
f 232//3 153//3 147//3
f 11//2 117//2 107//2
f 117//2 118//2 108//2
f 118//2 119//2 109//2
f 119//2 120//2 110//2
f 120//2 121//2 111//2
f 121//2 122//2 112//2
f 122//2 123//2 113//2
f 123//2 124//2 114//2
f 124//2 125//2 115//2
f 125//2 126//2 116//2
f 12//2 107//2 97//2
f 107//2 108//2 98//2
f 108//2 109//2 99//2
f 109//2 110//2 100//2
f 110//2 111//2 101//2
f 111//2 112//2 102//2
f 112//2 113//2 103//2
f 113//2 114//2 104//2
f 114//2 115//2 105//2
f 115//2 116//2 106//2
f 13//2 97//2 87//2
f 97//2 98//2 88//2
f 98//2 99//2 89//2
f 99//2 100//2 90//2
f 100//2 101//2 91//2
f 101//2 102//2 92//2
f 102//2 103//2 93//2
f 103//2 104//2 94//2
f 104//2 105//2 95//2
f 105//2 106//2 96//2
f 14//2 87//2 77//2
f 87//2 88//2 78//2
f 88//2 89//2 79//2
f 89//2 90//2 80//2
f 90//2 91//2 81//2
f 91//2 92//2 82//2
f 92//2 93//2 83//2
f 93//2 94//2 84//2
f 94//2 95//2 85//2
f 95//2 96//2 86//2
f 15//2 77//2 67//2
f 77//2 78//2 68//2
f 78//2 79//2 69//2
f 79//2 80//2 70//2
f 80//2 81//2 71//2
f 81//2 82//2 72//2
f 82//2 83//2 73//2
f 83//2 84//2 74//2
f 84//2 85//2 75//2
f 85//2 86//2 76//2
f 16//2 67//2 57//2
f 196//1 182//1 181//1
f 185//4 166//4 167//4
f 69//2 70//2 60//2
f 70//2 71//2 61//2
f 71//2 72//2 62//2
f 72//2 73//2 63//2
f 73//2 74//2 64//2
f 184//5 167//5 173//5
f 214//5 158//5 164//5
f 17//2 57//2 47//2
f 200//1 181//1 180//1
f 187//4 165//4 166//4
f 59//2 60//2 50//2
f 60//2 61//2 51//2
f 61//2 62//2 52//2
f 62//2 63//2 53//2
f 63//2 64//2 54//2
f 190//3 171//3 165//3
f 218//3 162//3 156//3
f 18//2 47//2 27//2
f 47//2 48//2 28//2
f 48//2 49//2 29//2
f 49//2 50//2 30//2
f 50//2 51//2 31//2
f 51//2 52//2 32//2
f 52//2 53//2 33//2
f 53//2 54//2 34//2
f 54//2 55//2 35//2
f 55//2 56//2 36//2
f 138//2 45//2 311//2
f 7//2 46//2 137//2
f 137//2 46//2 45//2
f 44//2 311//2 43//2
f 140//2 43//2 42//2
f 141//2 42//2 41//2
f 142//2 41//2 40//2
f 143//2 40//2 39//2
f 144//2 39//2 38//2
f 38//2 37//2 146//2
f 1//4 2//4 36//4
f 4//4 3//4 27//4
f 28//4 29//4 4//4
f 4//4 27//4 28//4
f 36//4 2//4 35//4
f 33//4 34//4 2//4
f 35//4 2//4 34//4
f 4//4 29//4 30//4
f 31//4 32//4 2//4
f 4//4 30//4 31//4
f 33//4 2//4 32//4
f 177//2 178//2 172//2
f 178//2 179//2 173//2
f 180//2 181//2 175//2
f 181//2 182//2 176//2
f 171//2 172//2 166//2
f 172//2 173//2 167//2
f 174//2 175//2 169//2
f 175//2 176//2 170//2
f 159//2 160//2 154//2
f 160//2 161//2 155//2
f 162//2 163//2 157//2
f 163//2 164//2 158//2
f 153//2 154//2 148//2
f 154//2 155//2 149//2
f 156//2 157//2 151//2
f 157//2 158//2 152//2
f 233//3 159//3 153//3
f 202//3 174//3 168//3
f 194//1 178//1 177//1
f 203//4 168//4 169//4
f 237//5 155//5 161//5
f 191//1 179//1 178//1
f 208//5 170//5 176//5
f 205//4 169//4 170//4
f 215//3 156//3 150//3
f 197//3 180//3 174//3
f 229//4 147//4 148//4
f 226//1 163//1 162//1
f 223//5 152//5 158//5
f 209//5 176//5 182//5
f 241//4 148//4 149//4
f 211//1 164//1 163//1
f 139//1 192//1 193//1
f 192//1 191//1 194//1
f 138//1 193//1 135//1
f 193//1 194//1 128//1
f 127//3 189//3 188//3
f 189//3 190//3 187//3
f 117//4 188//4 186//4
f 188//4 187//4 185//4
f 119//5 183//5 58//5
f 183//5 184//5 65//5
f 118//4 186//4 183//4
f 186//4 185//4 184//4
f 137//3 135//3 189//3
f 135//3 128//3 190//3
f 129//5 58//5 192//5
f 58//5 65//5 191//5
f 136//5 210//5 195//5
f 210//5 209//5 196//5
f 144//3 198//3 201//3
f 198//3 197//3 202//3
f 125//4 206//4 207//4
f 206//4 205//4 208//4
f 126//5 207//5 210//5
f 207//5 208//5 209//5
f 124//4 204//4 206//4
f 204//4 203//4 205//4
f 134//3 201//3 204//3
f 201//3 202//3 203//3
f 145//1 199//1 198//1
f 199//1 200//1 197//1
f 146//1 195//1 199//1
f 195//1 196//1 200//1
f 76//1 212//1 225//1
f 212//1 211//1 226//1
f 56//5 224//5 213//5
f 224//5 223//5 214//5
f 75//1 225//1 217//1
f 225//1 226//1 218//1
f 64//3 216//3 219//3
f 216//3 215//3 220//3
f 74//3 217//3 216//3
f 217//3 218//3 215//3
f 66//5 213//5 212//5
f 213//5 214//5 211//5
f 54//4 219//4 222//4
f 219//4 220//4 221//4
f 55//4 222//4 224//4
f 222//4 221//4 223//4
f 48//4 242//4 235//4
f 242//4 241//4 236//4
f 47//4 230//4 242//4
f 230//4 229//4 241//4
f 59//5 238//5 239//5
f 238//5 237//5 240//5
f 67//3 234//3 231//3
f 234//3 233//3 232//3
f 57//3 231//3 230//3
f 231//3 232//3 229//3
f 68//1 227//1 234//1
f 227//1 228//1 233//1
f 49//5 235//5 238//5
f 235//5 236//5 237//5
f 69//1 239//1 227//1
f 239//1 240//1 228//1
f 218//6 211//6 208//6
f 191//6 184//6 203//6
f 187//2 184//2 240//2
f 240//2 184//2 203//2
f 218//2 220//2 236//2
f 239//2 217//2 216//2
f 216//2 219//2 235//2
f 238//2 239//2 216//2
f 217//2 204//2 225//2
f 206//2 207//2 212//2
f 225//2 204//2 206//2
f 220//4 219//4 235//4
f 208//5 207//5 212//5
f 201//2 204//2 183//2
f 58//2 192//2 198//2
f 201//2 183//2 58//2
f 192//4 191//4 197//4
f 227//2 234//2 188//2
f 186//2 183//2 239//2
f 227//2 188//2 186//2
f 234//5 233//5 187//5
f 239//2 183//2 204//2
f 244//4 246//4 245//4
f 245//3 246//3 250//3
f 250//7 248//7 247//7
f 248//5 244//5 243//5
f 246//6 244//6 248//6
f 253//2 254//2 252//2
f 247//1 275//1 276//1
f 243//5 252//5 254//5
f 249//3 253//3 251//3
f 257//3 261//3 259//3
f 260//4 268//4 270//4
f 255//3 259//3 265//3
f 256//5 260//5 262//5
f 258//2 262//2 261//2
f 263//6 265//6 266//6
f 255//1 263//1 264//1
f 256//5 264//5 266//5
f 260//8 266//8 265//8
f 267//6 271//6 272//6
f 261//4 262//4 270//4
f 261//4 269//4 267//4
f 259//4 267//4 268//4
f 271//4 273//4 274//4
f 268//5 272//5 274//5
f 270//2 274//2 273//2
f 269//3 273//3 271//3
f 277//5 281//5 279//5
f 247//1 254//1 277//1
f 253//1 278//1 277//1
f 249//1 276//1 278//1
f 281//5 285//5 283//5
f 275//6 279//6 280//6
f 276//3 280//3 282//3
f 278//2 282//2 281//2
f 283//1 285//1 286//1
f 283//6 289//6 287//6
f 280//3 284//3 286//3
f 290//1 294//1 293//1
f 280//6 279//6 287//6
f 280//6 288//6 290//6
f 284//6 290//6 289//6
f 291//6 293//6 294//6
f 289//5 293//5 291//5
f 287//4 291//4 292//4
f 288//3 292//3 294//3
f 289//1 297//1 298//1
f 287//5 295//5 297//5
f 288//4 296//4 295//4
f 290//3 298//3 296//3
f 296//9 295//9 281//9
f 295//10 297//10 285//10
f 285//11 297//11 298//11
f 286//12 298//12 296//12
f 298//3 302//3 300//3
f 297//1 301//1 302//1
f 295//5 299//5 301//5
f 296//4 300//4 299//4
f 302//2 301//2 299//2
f 269//2 305//2 306//2
f 267//3 303//3 305//3
f 267//2 303//2 304//2
f 270//5 306//5 304//5
f 258//1 306//1 304//1
f 257//13 305//13 306//13
f 255//1 303//1 305//1
f 304//14 303//14 255//14
f 303//3 307//3 309//3
f 304//6 308//6 307//6
f 306//5 310//5 308//5
f 305//2 309//2 310//2
f 308//15 310//15 252//15
f 310//16 309//16 251//16
f 309//17 307//17 245//17
f 245//18 307//18 308//18
f 5//5 6//5 2//5
f 2//6 6//6 8//6
